IKResults
version=1
nRows=29
nColumns=24
inDegrees=yes

Units are S.I. units (second, meters, Newtons, ...)
If the header above contains a line with 'inDegrees', this indicates whether rotational values are in degrees (yes) or radians (no).

endheader
time	pelvis_tilt	pelvis_list	pelvis_rotation	pelvis_tx	pelvis_ty	pelvis_tz	hip_flexion_r	hip_adduction_r	hip_rotation_r	knee_angle_r	ankle_angle_r	subtalar_angle_r	mtp_angle_r	hip_flexion_l	hip_adduction_l	hip_rotation_l	knee_angle_l	ankle_angle_l	subtalar_angle_l	mtp_angle_l	lumbar_extension	lumbar_bending	lumbar_rotation
0.150000	12.198704	1.322745	-178.353935	0.205989	0.850905	-1.199333	16.228845	-11.344603	-35.598585	-10.067349	-1.697896	5.443919	0.000000	16.590973	-13.763449	-34.447485	-9.391358	-0.707747	17.572643	0.000000	5.044460	1.770646	-1.029559
0.155000	12.141458	1.331706	-178.387929	0.205781	0.850875	-1.199284	16.166905	-11.337476	-35.587573	-10.081777	-1.632158	5.457519	0.000000	16.488219	-13.766207	-34.446886	-9.350503	-0.667633	17.544875	0.000000	5.020168	1.798627	-0.997702
0.160000	12.174448	1.361924	-178.384042	0.206000	0.850900	-1.199424	16.213673	-11.294321	-35.601782	-10.070939	-1.660461	5.459382	0.000000	16.550018	-13.804226	-34.407942	-9.356946	-0.731144	17.509171	0.000000	5.040530	1.809849	-0.998042
0.165000	12.173971	1.355574	-178.362551	0.206093	0.850883	-1.199507	16.216072	-11.298792	-35.627482	-10.070401	-1.683167	5.445152	0.000000	16.580232	-13.806219	-34.388128	-9.399841	-0.680900	17.498343	0.000000	5.039192	1.776623	-1.026064
0.170000	12.143093	1.307867	-178.350232	0.205948	0.850789	-1.199465	16.136005	-11.340661	-35.518385	-9.983481	-1.594358	5.534309	0.000000	16.537066	-13.750826	-34.381115	-9.405233	-0.615483	17.513632	0.000000	5.034928	1.716351	-1.054854
0.175000	12.136959	1.310617	-178.343708	0.206024	0.850789	-1.199540	16.136061	-11.334011	-35.519714	-9.986260	-1.595247	5.536221	0.000000	16.544327	-13.756665	-34.384066	-9.402608	-0.615012	17.511664	0.000000	5.026157	1.697852	-1.050292
0.180000	12.115794	1.335489	-178.335339	0.206296	0.850867	-1.199748	16.146126	-11.300521	-35.554773	-10.017238	-1.574659	5.526810	0.000000	16.576150	-13.815207	-34.382521	-9.467144	-0.653574	17.493354	0.000000	4.974684	1.680034	-1.019395
0.185000	12.107270	1.349824	-178.364058	0.206388	0.850883	-1.199775	16.162452	-11.285913	-35.544295	-10.044060	-1.578817	5.539580	0.000000	16.582804	-13.847280	-34.368508	-9.501632	-0.671144	17.482208	0.000000	4.960238	1.696243	-0.986223
0.190000	12.121468	1.417591	-178.400532	0.206516	0.850889	-1.199898	16.219132	-11.208841	-35.655037	-10.106936	-1.666375	5.512307	0.000000	16.627151	-13.942188	-34.329186	-9.553885	-0.651616	17.408539	0.000000	4.972958	1.768557	-0.945216
0.195000	12.072910	1.344388	-178.434347	0.206350	0.850809	-1.199822	16.148921	-11.288598	-35.564927	-10.070869	-1.541152	5.637714	0.000000	16.543984	-13.864763	-34.329576	-9.560542	-0.576288	17.360172	0.000000	4.949762	1.700085	-0.912193
0.200000	12.059753	1.333870	-178.432883	0.206431	0.850834	-1.199933	16.146185	-11.295791	-35.567440	-10.078082	-1.541014	5.653644	0.000000	16.564250	-13.874616	-34.312825	-9.619591	-0.583588	17.354117	0.000000	4.918802	1.683068	-0.966753
0.205000	12.025836	1.338821	-178.408448	0.206673	0.850876	-1.200144	16.134662	-11.286242	-35.578814	-10.102701	-1.526828	5.653744	0.000000	16.593500	-13.910153	-34.267465	-9.696953	-0.601082	17.355424	0.000000	4.863740	1.625209	-0.938383
0.210000	12.056381	1.410354	-178.405918	0.206928	0.850941	-1.200345	16.194972	-11.201358	-35.614310	-10.125086	-1.473849	5.652841	0.000000	16.695074	-14.014726	-34.199395	-9.775712	-0.593083	17.293973	0.000000	4.861179	1.681420	-0.977318
0.215000	12.057462	1.418258	-178.400965	0.207102	0.850979	-1.200465	16.218810	-11.188605	-35.614864	-10.141536	-1.500184	5.637228	0.000000	16.745739	-14.027653	-34.019055	-9.828214	-0.612193	17.031674	0.000000	4.857007	1.681014	-0.997820
0.220000	12.024247	1.406129	-178.422196	0.207217	0.850988	-1.200527	16.216937	-11.203750	-35.586174	-10.186054	-1.480983	5.640515	0.000000	16.744981	-14.038065	-34.037130	-9.899958	-0.563973	16.993426	0.000000	4.801864	1.657607	-0.975136
0.225000	11.962063	1.369318	-178.436144	0.207273	0.850961	-1.200591	16.179157	-11.244532	-35.560573	-10.230291	-1.457078	5.664943	0.000000	16.715412	-14.030759	-34.024550	-9.999722	-0.495414	16.968539	0.000000	4.734323	1.591503	-0.922652
0.230000	11.968532	1.380544	-178.470260	0.207526	0.850963	-1.200669	16.242491	-11.237683	-35.518672	-10.294615	-1.440722	5.682216	0.000000	16.780018	-14.075469	-33.996199	-10.101255	-0.484020	16.917213	0.000000	4.704233	1.577024	-0.850032
0.235000	11.988227	1.430654	-178.522178	0.207702	0.851031	-1.200737	16.344398	-11.193526	-35.593026	-10.423355	-1.549304	5.621467	0.000000	16.848003	-14.157737	-33.921887	-10.198177	-0.475265	16.802198	0.000000	4.695524	1.651994	-0.831450
0.240000	11.952390	1.433065	-178.561482	0.207888	0.851103	-1.200878	16.367305	-11.190629	-35.519004	-10.503559	-1.466820	5.605432	0.000000	16.860605	-14.199671	-33.888986	-10.292276	-0.471099	16.706245	0.000000	4.638507	1.655811	-0.801766
0.245000	11.869281	1.398094	-178.579580	0.207943	0.851116	-1.200922	16.327122	-11.240890	-35.486345	-10.587094	-1.425236	5.593884	0.000000	16.819687	-14.193517	-33.834059	-10.411350	-0.384763	16.621512	0.000000	4.528793	1.604195	-0.783927
0.250000	11.832560	1.364482	-178.577882	0.208180	0.851035	-1.201029	16.318939	-11.278064	-35.337986	-10.602464	-1.325912	5.661220	0.000000	16.865279	-14.198186	-33.740626	-10.561817	-0.292475	16.572631	0.000000	4.448048	1.504537	-0.720902
0.255000	11.796412	1.353187	-178.583725	0.208438	0.851043	-1.201146	16.356870	-11.312069	-35.311209	-10.727598	-1.287827	5.646276	0.000000	16.919636	-14.230857	-33.665329	-10.731975	-0.213623	16.487550	0.000000	4.363779	1.465293	-0.704633
0.260000	11.846129	1.335343	-178.599069	0.208818	0.850981	-1.201191	16.510813	-11.358362	-35.204838	-10.871757	-1.271133	5.539757	0.000000	17.056911	-14.171968	-33.175857	-10.778435	-0.270491	15.685145	0.000000	4.366676	1.425824	-0.665772
0.265000	11.786502	1.359792	-178.652392	0.209042	0.851023	-1.201283	16.546402	-11.350858	-35.148604	-11.024781	-1.198776	5.528555	0.000000	17.072113	-14.252975	-33.123477	-10.941200	-0.206656	15.616829	0.000000	4.251552	1.445759	-0.598526
0.270000	11.854418	1.399165	-178.692954	0.209540	0.850990	-1.201434	16.729563	-11.307442	-34.925622	-11.153046	-1.200806	5.264836	0.000000	17.257241	-14.307237	-32.743634	-11.089468	-0.215726	15.057612	0.000000	4.242251	1.485753	-0.579096
0.275000	11.768642	1.371589	-178.723619	0.209792	0.851030	-1.201559	16.742365	-11.362552	-34.869091	-11.325587	-1.155046	5.243616	0.000000	17.264676	-14.340007	-32.679220	-11.294273	-0.101404	15.015130	0.000000	4.099103	1.454197	-0.579466
0.280000	11.709560	1.343562	-178.745855	0.210144	0.851033	-1.201673	16.795212	-11.425156	-34.761654	-11.513511	-1.060410	5.222384	0.000000	17.326310	-14.373379	-32.560880	-11.530623	0.009051	14.929970	0.000000	3.960110	1.402652	-0.554350
0.285000	11.724348	1.320803	-178.749862	0.210620	0.850921	-1.201721	16.945849	-11.485886	-34.592422	-11.722528	-1.012658	5.033323	0.000000	17.481832	-14.353902	-32.110088	-11.728109	0.070472	14.333510	0.000000	3.891516	1.325248	-0.464137
0.290000	11.672194	1.332603	-178.745394	0.211198	0.850951	-1.201971	17.041759	-11.511695	-34.483793	-11.967669	-0.907080	4.963742	0.000000	17.613668	-14.450017	-31.974881	-12.025118	0.159817	14.235723	0.000000	3.713367	1.287865	-0.476230
